<?xml version="1.0" standalone="no"?>
<!DOCTYPE svg PUBLIC "-//W3C//DTD SVG 20010904//EN"
 "http://www.w3.org/TR/2001/REC-SVG-20010904/DTD/svg10.dtd">
<svg version="1.0" xmlns="http://www.w3.org/2000/svg"
 width="1024.000000pt" height="1024.000000pt" viewBox="0 0 1024.000000 1024.000000"
 preserveAspectRatio="xMidYMid meet">
<metadata>
Created by potrace 1.14, written by Peter Selinger 2001-2017
</metadata>
<g transform="translate(0.000000,1024.000000) scale(0.100000,-0.100000)"
fill="#000000" stroke="none">
<path d="M6590 8453 c-1555 -20 -2909 -359 -3785 -948 -179 -120 -302 -221
-441 -359 -315 -315 -488 -624 -550 -986 -22 -128 -15 -393 14 -495 30 -108
56 -169 108 -253 240 -386 807 -566 1494 -476 790 104 1526 586 1834 1202 147
293 166 636 54 981 l-20 63 -40 -5 c-22 -3 -42 -8 -45 -11 -3 -2 9 -62 26
-133 122 -505 9 -892 -377 -1294 -270 -281 -635 -493 -1057 -615 -276 -80
-489 -109 -760 -101 -283 8 -453 45 -650 142 -363 177 -530 482 -486 885 37
346 184 640 459 918 630 638 1790 1015 3232 1051 329 8 1465 -3 1980 -18 184
-6 422 -11 528 -11 110 0 192 -4 192 -9 0 -5 -46 -23 -102 -41 -242 -73 -477
-178 -663 -295 -297 -187 -648 -493 -921 -805 -273 -312 -389 -473 -894 -1247
l-185 -283 -191 0 -191 0 -7 -31 c-14 -73 -25 -69 164 -69 94 0 170 -2 170 -5
0 -6 -509 -813 -634 -1005 -301 -461 -697 -924 -1036 -1209 -470 -396 -880
-592 -1341 -642 -137 -15 -494 -6 -629 16 -353 57 -650 248 -778 501 -37 73
-51 123 -67 236 l-12 87 71 -2 c90 -1 133 14 179 61 64 65 82 121 82 247 0 95
-3 116 -24 158 -28 57 -69 100 -125 130 -34 18 -57 22 -141 22 -87 0 -107 -3
-156 -26 -70 -33 -128 -93 -173 -178 -48 -92 -66 -171 -66 -290 0 -248 77
-422 274 -616 229 -227 520 -361 946 -437 106 -19 162 -22 365 -22 296 -1 476
20 748 83 363 86 783 290 1161 566 356 259 763 675 1099 1122 171 228 532 769
743 1115 32 54 66 98 74 98 34 0 753 71 848 83 56 7 102 10 102 6 0 -4 -61
-119 -136 -256 -155 -284 -218 -412 -281 -568 -41 -102 -43 -110 -27 -122 29
-21 40 -15 77 45 52 84 220 319 317 442 206 263 551 628 802 849 59 52 105 97
103 101 -5 8 -94 26 -165 34 -61 7 -165 -9 -236 -35 -45 -17 -75 -39 -143
-108 -47 -47 -112 -116 -144 -153 -51 -60 -65 -70 -120 -87 -102 -31 -304 -59
-627 -86 -168 -14 -313 -28 -324 -31 -22 -7 -29 -19 90 156 113 167 203 316
324 535 338 616 580 956 926 1299 161 159 300 273 452 369 122 76 343 188 478
241 l91 36 284 1 c156 0 446 4 644 9 690 17 772 46 782 270 6 134 -26 168
-179 190 -110 16 -360 14 -583 -5 -213 -19 -407 -18 -1375 4 -451 11 -1161 17
-1430 14z"/>
</g>
</svg>
