<?xml version="1.0" encoding="UTF-8" standalone="no"?><!DOCTYPE svg PUBLIC "-//W3C//DTD SVG 1.1//EN" "http://www.w3.org/Graphics/SVG/1.1/DTD/svg11.dtd"><svg width="100%" height="100%" viewBox="0 0 5334 3000" version="1.1" xmlns="http://www.w3.org/2000/svg" xmlns:xlink="http://www.w3.org/1999/xlink" xml:space="preserve" xmlns:serif="http://www.serif.com/" style="fill-rule:evenodd;clip-rule:evenodd;stroke-linejoin:round;stroke-miterlimit:2;"><g><path d="M158.187,111.259c-8.711,11.023 -17.689,21.645 -26.934,31.867c-9.244,10.222 -18.533,19.289 -27.866,27.2c-9.334,7.911 -18.622,14.222 -27.867,18.933c-9.244,4.711 -18.133,7.067 -26.667,7.067c-5.866,0 -10.533,-0.667 -14,-2c-3.466,-1.333 -6.133,-2.933 -8,-4.8c-1.866,-1.867 -3.111,-3.822 -3.733,-5.867c-0.622,-2.044 -0.933,-3.866 -0.933,-5.466c-0,-3.023 0.889,-5.6 2.666,-7.734c1.778,-2.133 4.267,-3.2 7.467,-3.2c2.845,0 5.067,0.978 6.667,2.934c1.6,1.955 2.4,4.266 2.4,6.933c-0,1.6 -0.445,3.2 -1.334,4.8c-0.888,1.6 -2.133,2.578 -3.733,2.933c1.6,2.489 3.822,4.134 6.667,4.934c2.844,0.8 5.778,1.2 8.8,1.2c7.644,-0 15.689,-2.223 24.133,-6.667c8.445,-4.444 16.978,-10.267 25.6,-17.467c8.622,-7.2 17.2,-15.377 25.733,-24.533c8.534,-9.156 16.712,-18.533 24.534,-28.133c3.378,-4.267 7.6,-9.511 12.666,-15.734c5.067,-6.222 10.8,-12.977 17.2,-20.266c6.4,-7.289 13.378,-14.711 20.934,-22.267c7.555,-7.556 15.6,-14.711 24.133,-21.467c8.533,-6.755 17.422,-12.8 26.667,-18.133c9.244,-5.333 18.666,-9.333 28.266,-12l0.8,1.067c-6.044,5.511 -12.355,12.355 -18.933,20.533c-6.578,8.178 -13.022,17.022 -19.333,26.533c-6.311,9.511 -12.311,19.511 -18,30c-5.689,10.489 -10.711,20.934 -15.067,31.334c-4.355,10.4 -7.822,20.4 -10.4,30c-2.578,9.6 -3.867,18.4 -3.867,26.4c0,5.511 0.934,10.177 2.8,14c1.867,3.822 5.645,5.733 11.334,5.733c3.378,0 7.244,-1.244 11.6,-3.733c4.355,-2.489 8.933,-5.778 13.733,-9.867c4.8,-4.089 9.556,-8.622 14.267,-13.6c4.711,-4.978 9.2,-9.911 13.466,-14.8c4.267,-4.889 8.089,-9.511 11.467,-13.867c3.378,-4.355 6.045,-7.866 8,-10.533l1.867,0.8c-6.045,7.644 -12.445,15.733 -19.2,24.267c-6.756,8.533 -13.6,16.311 -20.534,23.333c-6.933,7.022 -13.911,12.844 -20.933,17.467c-7.022,4.622 -13.733,6.933 -20.133,6.933c-4.267,0 -7.867,-0.756 -10.8,-2.267c-2.934,-1.511 -5.378,-3.6 -7.334,-6.266c-1.955,-2.667 -3.377,-5.689 -4.266,-9.067c-0.889,-3.378 -1.334,-6.933 -1.334,-10.667c0,-10.133 1.423,-19.866 4.267,-29.2c2.845,-9.333 6.045,-18.533 9.6,-27.6l-36.533,0Zm37.866,-3.2c8,-16.533 17.467,-32.711 28.4,-48.533c10.934,-15.822 23.867,-30.844 38.8,-45.067l-0.533,-0.533c-9.422,4.622 -18.622,10.311 -27.6,17.067c-8.978,6.755 -17.733,14.222 -26.267,22.4c-8.533,8.177 -16.844,16.889 -24.933,26.133c-8.089,9.244 -15.955,18.756 -23.6,28.533l35.733,0Z" style="fill-rule:nonzero;"/><path d="M400.853,108.059l0.534,-3.2l11.466,0c5.156,-8 10.445,-16.089 15.867,-24.266c5.422,-8.178 11.378,-15.867 17.867,-23.067c6.489,-7.2 13.689,-13.6 21.6,-19.2c7.911,-5.6 16.755,-9.644 26.533,-12.133l0,-0.534c-4.622,0 -9.333,-0.044 -14.133,-0.133c-4.8,-0.089 -10,-0.222 -15.6,-0.4c-5.6,-0.178 -11.822,-0.311 -18.667,-0.4c-6.844,-0.089 -14.622,-0.133 -23.333,-0.133c-17.6,-0 -33.6,1.511 -48,4.533c-14.4,3.022 -26.711,7.289 -36.934,12.8c-10.222,5.511 -18.177,11.956 -23.866,19.333c-5.689,7.378 -8.711,15.511 -9.067,24.4c-0.355,8.534 2.711,15.334 9.2,20.4c6.489,5.067 15.333,7.6 26.533,7.6c7.289,0 14.756,-1.2 22.4,-3.6c7.645,-2.4 14.578,-5.777 20.8,-10.133c6.223,-4.356 11.334,-9.556 15.334,-15.6c4,-6.044 6,-12.622 6,-19.733c-0,-3.023 -0.267,-5.734 -0.8,-8.134c-0.534,-2.4 -1.067,-4.577 -1.6,-6.533l2.666,-0.533c1.956,4.977 2.934,10.133 2.934,15.466c-0,6.4 -1.867,12.711 -5.6,18.934c-3.734,6.222 -8.711,11.777 -14.934,16.666c-6.222,4.889 -13.466,8.845 -21.733,11.867c-8.267,3.022 -16.844,4.533 -25.733,4.533c-11.911,0 -21.334,-2.666 -28.267,-8c-6.933,-5.333 -10.4,-12.8 -10.4,-22.4c0,-9.777 3.333,-19.155 10,-28.133c6.667,-8.978 16.311,-16.933 28.933,-23.867c12.623,-6.933 28.134,-12.444 46.534,-16.533c18.4,-4.089 39.333,-6.133 62.8,-6.133c15.644,-0 29.289,0.177 40.933,0.533c11.645,0.356 20.311,0.533 26,0.533c4.089,0 7.778,-0.177 11.067,-0.533c3.289,-0.356 6.266,-0.533 8.933,-0.533c3.556,-0 6.578,0.222 9.067,0.666c2.489,0.445 3.733,2 3.733,4.667c0,2.311 -0.444,4.089 -1.333,5.333c-0.889,1.245 -3.067,2.134 -6.534,2.667c-3.466,0.533 -8.577,0.844 -15.333,0.933c-6.755,0.089 -15.911,0.134 -27.467,0.134c-10.311,3.733 -18.933,8.666 -25.866,14.8c-6.934,6.133 -12.934,12.8 -18,20c-5.067,7.2 -9.6,14.577 -13.6,22.133c-4,7.556 -8.4,14.622 -13.2,21.2c2.133,-0.356 4.844,-0.622 8.133,-0.8c3.289,-0.178 6.533,-0.444 9.733,-0.8c3.2,-0.356 6.134,-0.8 8.8,-1.333c2.667,-0.534 4.356,-1.334 5.067,-2.4c1.6,-2.134 3.511,-4.267 5.733,-6.4c2.223,-2.134 5.2,-3.2 8.934,-3.2c2.311,-0 4.533,0.355 6.666,1.066c-7.288,6.223 -14.133,12.934 -20.533,20.134c-6.4,7.2 -12.178,14.889 -17.333,23.066l-1.6,-0.8c1.778,-4.977 3.911,-9.733 6.4,-14.266c2.489,-4.534 4.978,-9.111 7.466,-13.734c-2.311,0.356 -4.844,0.667 -7.6,0.934c-2.755,0.266 -5.466,0.533 -8.133,0.8c-2.667,0.266 -5.155,0.489 -7.467,0.666c-2.311,0.178 -4.177,0.356 -5.6,0.534c-6.4,10.666 -13.288,21.244 -20.666,31.733c-7.378,10.489 -15.6,19.956 -24.667,28.4c-9.067,8.444 -19.2,15.289 -30.4,20.533c-11.2,5.245 -23.822,7.867 -37.867,7.867c-4.8,0 -9.911,-0.622 -15.333,-1.867c-5.422,-1.244 -10.444,-3.2 -15.067,-5.866c-4.622,-2.667 -8.444,-6.045 -11.466,-10.134c-3.022,-4.089 -4.534,-8.977 -4.534,-14.666c0,-3.556 1.023,-6.845 3.067,-9.867c2.045,-3.022 5.022,-4.533 8.933,-4.533c2.845,-0 5.023,0.889 6.534,2.666c1.511,1.778 2.266,4 2.266,6.667c0,2.489 -0.622,4.667 -1.866,6.533c-1.245,1.867 -3.111,2.8 -5.6,2.8c-1.067,0 -1.956,-0.089 -2.667,-0.266c0,0.533 0.222,2.177 0.667,4.933c0.444,2.756 1.822,5.644 4.133,8.667c2.311,3.022 6,5.733 11.067,8.133c5.066,2.4 12.133,3.6 21.2,3.6c11.555,0 22.133,-2.889 31.733,-8.667c9.6,-5.777 18.311,-12.933 26.133,-21.466c7.823,-8.534 14.889,-17.778 21.2,-27.734c6.312,-9.955 12.045,-19.022 17.2,-27.2l-10.4,0Z" style="fill-rule:nonzero;"/><path d="M581.92,74.459c0.533,3.734 0.889,6.889 1.067,9.467c0.178,2.578 0.266,5.289 0.266,8.133c0,8 -1.111,15.556 -3.333,22.667c-2.222,7.111 -5.378,13.422 -9.467,18.933c-4.088,5.511 -9.111,9.867 -15.066,13.067c-5.956,3.2 -12.667,4.8 -20.134,4.8c-6.577,0 -12.4,-1.2 -17.466,-3.6c-5.067,-2.4 -9.334,-5.6 -12.8,-9.6c-3.467,-4 -6.089,-8.622 -7.867,-13.867c-1.778,-5.244 -2.667,-10.8 -2.667,-16.666c0,-7.823 1.512,-15.823 4.534,-24c3.022,-8.178 7.289,-16.089 12.8,-23.734c5.511,-7.644 12.222,-14.844 20.133,-21.6c7.911,-6.755 16.8,-12.666 26.667,-17.733c9.866,-5.067 20.533,-9.067 32,-12c11.466,-2.933 23.6,-4.4 36.4,-4.4c10.311,0 19.822,0.978 28.533,2.933c8.711,1.956 16.267,4.711 22.667,8.267c7.111,-3.911 13.644,-6.8 19.6,-8.667c5.955,-1.866 11.778,-3.244 17.466,-4.133l0,3.2c-5.688,0.889 -11.2,2.178 -16.533,3.867c-5.333,1.689 -10.844,4.4 -16.533,8.133c5.689,4.622 10,9.467 12.933,14.533c2.933,5.067 4.4,11.334 4.4,18.8c0,6.756 -1.511,12.889 -4.533,18.4c-3.022,5.511 -6.934,10.267 -11.734,14.267c-4.8,4 -10.222,7.333 -16.266,10c-6.045,2.667 -12.089,4.533 -18.134,5.6l0,0.533c5.156,0.178 9.956,1.023 14.4,2.534c4.445,1.511 8.312,3.644 11.6,6.4c3.289,2.755 5.867,6.222 7.734,10.4c1.866,4.177 2.8,9.111 2.8,14.8c-0,8.711 -2.045,16.844 -6.134,24.4c-4.088,7.555 -9.244,14.133 -15.466,19.733c-6.222,5.6 -13.156,10 -20.8,13.2c-7.645,3.2 -15.111,4.8 -22.4,4.8c-10.134,0 -18.267,-2.178 -24.4,-6.533c-6.134,-4.356 -9.2,-9.911 -9.2,-16.667c-0,-4.444 1.378,-8.267 4.133,-11.467c2.756,-3.2 6.445,-4.8 11.067,-4.8c2.844,0 5.333,1.067 7.466,3.2c-3.022,0.534 -5.155,2.267 -6.4,5.2c-1.244,2.934 -1.866,6.623 -1.866,11.067c-0,4.8 1.778,8.8 5.333,12c3.556,3.2 8.089,4.8 13.6,4.8c8.178,0 15.333,-1.733 21.467,-5.2c6.133,-3.467 11.244,-8.044 15.333,-13.733c4.089,-5.689 7.156,-12.178 9.2,-19.467c2.045,-7.289 3.067,-14.756 3.067,-22.4c-0,-5.689 -0.978,-10.444 -2.934,-14.267c-1.955,-3.822 -4.622,-6.889 -8,-9.2c-3.377,-2.311 -7.333,-3.911 -11.866,-4.8c-4.534,-0.889 -9.378,-1.333 -14.534,-1.333l0,-3.2c8,0 15.245,-1.333 21.734,-4c6.489,-2.667 12.044,-6.4 16.666,-11.2c4.623,-4.8 8.223,-10.489 10.8,-17.067c2.578,-6.577 3.867,-13.689 3.867,-21.333c0,-4.089 -0.8,-8.089 -2.4,-12c-1.6,-3.911 -3.822,-7.378 -6.667,-10.4c-8.533,7.467 -16.577,16.978 -24.133,28.533c-7.555,11.556 -15.111,23.823 -22.667,36.8c-7.555,12.978 -15.288,25.956 -23.2,38.934c-7.911,12.977 -16.444,24.711 -25.6,35.2c-9.155,10.489 -19.155,19.022 -30,25.6c-10.844,6.577 -22.933,9.866 -36.266,9.866c-9.245,0 -16.534,-1.955 -21.867,-5.866c-5.333,-3.911 -8,-8.623 -8,-14.134c0,-3.555 1.022,-6.355 3.067,-8.4c2.044,-2.044 4.578,-3.066 7.6,-3.066c3.022,-0 5.289,0.933 6.8,2.8c1.511,1.866 2.266,4.222 2.266,7.066c0,2.489 -0.844,4.578 -2.533,6.267c-1.689,1.689 -3.778,2.533 -6.267,2.533c0.356,1.778 1.245,3.289 2.667,4.534c1.422,1.244 3.067,2.266 4.933,3.066c1.867,0.8 3.778,1.334 5.734,1.6c1.955,0.267 3.644,0.4 5.066,0.4c8.889,0 16.712,-1.689 23.467,-5.066c6.756,-3.378 13.111,-8.223 19.067,-14.534c5.955,-6.311 11.822,-13.955 17.6,-22.933c5.778,-8.978 12.044,-19.067 18.8,-30.267c7.111,-11.555 13.733,-22.444 19.866,-32.666c6.134,-10.223 12.312,-19.689 18.534,-28.4c6.222,-8.711 12.666,-16.623 19.333,-23.734c6.667,-7.111 14,-13.155 22,-18.133c-5.689,-4.622 -12.622,-7.778 -20.8,-9.467c-8.178,-1.689 -16.8,-2.533 -25.867,-2.533c-16.533,0 -32.177,2.8 -46.933,8.4c-14.755,5.6 -27.644,12.978 -38.667,22.133c-11.022,9.156 -19.777,19.645 -26.266,31.467c-6.489,11.822 -9.734,24.044 -9.734,36.667c0,4.8 0.623,9.733 1.867,14.8c1.245,5.066 3.156,9.6 5.733,13.6c2.578,4 5.823,7.289 9.734,9.866c3.911,2.578 8.533,3.867 13.866,3.867c6.578,0 12.623,-1.422 18.134,-4.267c5.511,-2.844 10.222,-6.755 14.133,-11.733c3.911,-4.978 6.978,-10.978 9.2,-18c2.222,-7.022 3.333,-14.622 3.333,-22.8c0,-2.844 -0.088,-5.644 -0.266,-8.4c-0.178,-2.756 -0.445,-5.556 -0.8,-8.4l2.933,-0.267Z" style="fill-rule:nonzero;"/></g></svg>