<?xml version="1.0" encoding="UTF-8" standalone="no"?><!DOCTYPE svg PUBLIC "-//W3C//DTD SVG 1.1//EN" "http://www.w3.org/Graphics/SVG/1.1/DTD/svg11.dtd"><svg width="100%" height="100%" viewBox="0 0 390 199" version="1.1" xmlns="http://www.w3.org/2000/svg" xmlns:xlink="http://www.w3.org/1999/xlink" xml:space="preserve" xmlns:serif="http://www.serif.com/" style="fill-rule:evenodd;clip-rule:evenodd;stroke-linejoin:round;stroke-miterlimit:2;"><g><path d="M100.2,72.2l0.4,-2.4l8.6,0c3.867,-6 7.833,-12.067 11.9,-18.2c4.067,-6.133 8.533,-11.9 13.4,-17.3c4.867,-5.4 10.267,-10.2 16.2,-14.4c5.933,-4.2 12.567,-7.233 19.9,-9.1l0,-0.4c-3.467,0 -7,-0.033 -10.6,-0.1c-3.6,-0.067 -7.5,-0.167 -11.7,-0.3c-4.2,-0.133 -8.867,-0.233 -14,-0.3c-5.133,-0.067 -10.967,-0.1 -17.5,-0.1c-13.2,-0 -25.2,1.133 -36,3.4c-10.8,2.267 -20.033,5.467 -27.7,9.6c-7.667,4.133 -13.633,8.967 -17.9,14.5c-4.267,5.533 -6.533,11.633 -6.8,18.3c-0.267,6.4 2.033,11.5 6.9,15.3c4.867,3.8 11.5,5.7 19.9,5.7c5.467,0 11.067,-0.9 16.8,-2.7c5.733,-1.8 10.933,-4.333 15.6,-7.6c4.667,-3.267 8.5,-7.167 11.5,-11.7c3,-4.533 4.5,-9.467 4.5,-14.8c0,-2.267 -0.2,-4.3 -0.6,-6.1c-0.4,-1.8 -0.8,-3.433 -1.2,-4.9l2,-0.4c1.467,3.733 2.2,7.6 2.2,11.6c0,4.8 -1.4,9.533 -4.2,14.2c-2.8,4.667 -6.533,8.833 -11.2,12.5c-4.667,3.667 -10.1,6.633 -16.3,8.9c-6.2,2.267 -12.633,3.4 -19.3,3.4c-8.933,-0 -16,-2 -21.2,-6c-5.2,-4 -7.8,-9.6 -7.8,-16.8c0,-7.333 2.5,-14.367 7.5,-21.1c5,-6.733 12.233,-12.7 21.7,-17.9c9.467,-5.2 21.1,-9.333 34.9,-12.4c13.8,-3.067 29.5,-4.6 47.1,-4.6c11.733,-0 21.967,0.133 30.7,0.4c8.733,0.267 15.233,0.4 19.5,0.4c3.067,-0 5.833,-0.133 8.3,-0.4c2.467,-0.267 4.7,-0.4 6.7,-0.4c2.667,-0 4.933,0.167 6.8,0.5c1.867,0.333 2.8,1.5 2.8,3.5c-0,1.733 -0.333,3.067 -1,4c-0.667,0.933 -2.3,1.6 -4.9,2c-2.6,0.4 -6.433,0.633 -11.5,0.7c-5.067,0.067 -11.933,0.1 -20.6,0.1c-7.733,2.8 -14.2,6.5 -19.4,11.1c-5.2,4.6 -9.7,9.6 -13.5,15c-3.8,5.4 -7.2,10.933 -10.2,16.6c-3,5.667 -6.3,10.967 -9.9,15.9c1.6,-0.267 3.633,-0.467 6.1,-0.6c2.467,-0.133 4.9,-0.333 7.3,-0.6c2.4,-0.267 4.6,-0.6 6.6,-1c2,-0.4 3.267,-1 3.8,-1.8c1.2,-1.6 2.633,-3.2 4.3,-4.8c1.667,-1.6 3.9,-2.4 6.7,-2.4c1.733,-0 3.4,0.267 5,0.8c-5.467,4.667 -10.6,9.7 -15.4,15.1c-4.8,5.4 -9.133,11.167 -13,17.3l-1.2,-0.6c1.333,-3.733 2.933,-7.3 4.8,-10.7c1.867,-3.4 3.733,-6.833 5.6,-10.3c-1.733,0.267 -3.633,0.5 -5.7,0.7c-2.067,0.2 -4.1,0.4 -6.1,0.6c-2,0.2 -3.867,0.367 -5.6,0.5c-1.733,0.133 -3.133,0.267 -4.2,0.4c-4.8,8 -9.967,15.933 -15.5,23.8c-5.533,7.867 -11.7,14.967 -18.5,21.3c-6.8,6.333 -14.4,11.467 -22.8,15.4c-8.4,3.933 -17.867,5.9 -28.4,5.9c-3.6,0 -7.433,-0.467 -11.5,-1.4c-4.067,-0.933 -7.833,-2.4 -11.3,-4.4c-3.467,-2 -6.333,-4.533 -8.6,-7.6c-2.267,-3.067 -3.4,-6.733 -3.4,-11c-0,-2.667 0.767,-5.133 2.3,-7.4c1.533,-2.267 3.767,-3.4 6.7,-3.4c2.133,-0 3.767,0.667 4.9,2c1.133,1.333 1.7,3 1.7,5c-0,1.867 -0.467,3.5 -1.4,4.9c-0.933,1.4 -2.333,2.1 -4.2,2.1c-0.8,-0 -1.467,-0.067 -2,-0.2c-0,0.4 0.167,1.633 0.5,3.7c0.333,2.067 1.367,4.233 3.1,6.5c1.733,2.267 4.5,4.3 8.3,6.1c3.8,1.8 9.1,2.7 15.9,2.7c8.667,0 16.6,-2.167 23.8,-6.5c7.2,-4.333 13.733,-9.7 19.6,-16.1c5.867,-6.4 11.167,-13.333 15.9,-20.8c4.733,-7.467 9.033,-14.267 12.9,-20.4l-7.8,0Z" style="fill-rule:nonzero;"/><path d="M187.6,68l-25.4,37l0.4,0.4c1.867,-2.267 4.233,-4.9 7.1,-7.9c2.867,-3 6,-6.067 9.4,-9.2c3.4,-3.133 6.967,-6.233 10.7,-9.3c3.733,-3.067 7.4,-5.8 11,-8.2c0.667,-1.333 1.4,-2.4 2.2,-3.2c0.8,-0.8 2.4,-1.2 4.8,-1.2c1.467,0 2.767,0.033 3.9,0.1c1.133,0.067 2.3,0.167 3.5,0.3c-2.267,2.267 -4.467,5.033 -6.6,8.3c-2.133,3.267 -3.2,6.833 -3.2,10.7c0,3.067 0.767,5.467 2.3,7.2c1.533,1.733 3.433,2.6 5.7,2.6c2,0 3.967,-0.4 5.9,-1.2c1.933,-0.8 3.767,-1.8 5.5,-3c1.733,-1.2 3.4,-2.467 5,-3.8c1.6,-1.333 3,-2.533 4.2,-3.6l1.2,0.8c-1.333,1.333 -2.867,2.767 -4.6,4.3c-1.733,1.533 -3.6,2.967 -5.6,4.3c-2,1.333 -4.133,2.433 -6.4,3.3c-2.267,0.867 -4.6,1.3 -7,1.3c-4.267,0 -7.7,-1.3 -10.3,-3.9c-2.6,-2.6 -3.9,-6.233 -3.9,-10.9c0,-3.2 0.733,-6.067 2.2,-8.6l-0.4,-0.4c-5.467,3.733 -11.467,8.633 -18,14.7c-6.533,6.067 -13.467,13.233 -20.8,21.5c-2.667,2.933 -5.433,6.8 -8.3,11.6c-2.867,4.8 -5.367,9.733 -7.5,14.8l-13,0c7.2,-11.467 14.4,-22.867 21.6,-34.2c7.2,-11.333 14.6,-22.867 22.2,-34.6l12.2,0Z" style="fill-rule:nonzero;"/><path d="M269.8,74.4c0,-1.867 -0.5,-3.267 -1.5,-4.2c-1,-0.933 -2.233,-1.4 -3.7,-1.4c-2.8,0 -5.833,1.1 -9.1,3.3c-3.267,2.2 -6.5,4.933 -9.7,8.2c-3.2,3.267 -6.1,6.767 -8.7,10.5c-2.6,3.733 -4.567,7.067 -5.9,10c2.933,-0.533 6.6,-1.567 11,-3.1c4.4,-1.533 8.633,-3.433 12.7,-5.7c4.067,-2.267 7.567,-4.9 10.5,-7.9c2.933,-3 4.4,-6.233 4.4,-9.7Zm32.4,10.6c-2,3.333 -4.5,7 -7.5,11c-3,4 -6.4,7.967 -10.2,11.9c-3.8,3.933 -7.867,7.733 -12.2,11.4c-4.333,3.667 -8.833,6.933 -13.5,9.8c-4.667,2.867 -9.367,5.133 -14.1,6.8c-4.733,1.667 -9.367,2.5 -13.9,2.5c-5.6,0 -9.933,-1.433 -13,-4.3c-3.067,-2.867 -4.6,-6.967 -4.6,-12.3c0,-5.867 1.767,-12.033 5.3,-18.5c3.533,-6.467 8.033,-12.433 13.5,-17.9c5.467,-5.467 11.467,-10 18,-13.6c6.533,-3.6 12.8,-5.4 18.8,-5.4c3.333,0 5.933,0.7 7.8,2.1c1.867,1.4 2.8,3.433 2.8,6.1c0,3.2 -1.733,6.3 -5.2,9.3c-3.467,3 -7.7,5.733 -12.7,8.2c-5,2.467 -10.367,4.667 -16.1,6.6c-5.733,1.933 -10.8,3.367 -15.2,4.3c-1.467,2.667 -2.667,5.667 -3.6,9c-0.933,3.333 -1.4,6.667 -1.4,10c0,1.6 0.167,3.167 0.5,4.7c0.333,1.533 0.867,2.933 1.6,4.2c0.733,1.267 1.733,2.3 3,3.1c1.267,0.8 2.833,1.2 4.7,1.2c4.4,0 9.567,-1.433 15.5,-4.3c5.933,-2.867 11.967,-6.7 18.1,-11.5c6.133,-4.8 12,-10.267 17.6,-16.4c5.6,-6.133 10.4,-12.467 14.4,-19l1.6,1Z" style="fill-rule:nonzero;"/><path d="M322.8,68c-4.8,6.933 -9.6,13.6 -14.4,20c-4.8,6.4 -9.1,12.267 -12.9,17.6c-3.8,5.333 -6.9,10.033 -9.3,14.1c-2.4,4.067 -3.6,7.3 -3.6,9.7c0,3.867 1.867,5.8 5.6,5.8c3.867,0 8.367,-1.867 13.5,-5.6c5.133,-3.733 10.567,-8.7 16.3,-14.9c5.733,-6.2 11.567,-13.333 17.5,-21.4c5.933,-8.067 11.633,-16.5 17.1,-25.3l12.4,0c-7.867,10.8 -15.2,21.9 -22,33.3c-6.8,11.4 -13.933,22.7 -21.4,33.9c12.667,-2.267 24.767,-7.833 36.3,-16.7c11.533,-8.867 21.767,-19.9 30.7,-33.1l1.4,0.6c-9.6,14.667 -20.5,26.433 -32.7,35.3c-12.2,8.867 -24.567,14.3 -37.1,16.3c-5.2,7.067 -10.5,14.233 -15.9,21.5c-5.4,7.267 -11.333,13.8 -17.8,19.6c-6.467,5.8 -13.567,10.533 -21.3,14.2c-7.733,3.667 -16.467,5.5 -26.2,5.5c-4.4,0 -8.567,-0.567 -12.5,-1.7c-3.933,-1.133 -7.367,-2.7 -10.3,-4.7c-2.933,-2 -5.267,-4.4 -7,-7.2c-1.733,-2.8 -2.6,-5.8 -2.6,-9c0,-6.933 2.3,-12 6.9,-15.2c4.6,-3.2 10.167,-4.8 16.7,-4.8l-0,0.6c-4.8,1.067 -8.333,3.233 -10.6,6.5c-2.267,3.267 -3.4,7.367 -3.4,12.3c-0,3.333 0.667,6.3 2,8.9c1.333,2.6 3.067,4.767 5.2,6.5c2.133,1.733 4.567,3.067 7.3,4c2.733,0.933 5.567,1.4 8.5,1.4c6.267,-0 12.333,-1.467 18.2,-4.4c5.867,-2.933 11.5,-6.8 16.9,-11.6c5.4,-4.8 10.567,-10.233 15.5,-16.3c4.933,-6.067 9.6,-12.333 14,-18.8c4.4,-6.467 8.5,-12.8 12.3,-19c3.8,-6.2 7.3,-11.767 10.5,-16.7l-0.4,-0.4c-2.133,2.533 -4.733,5.5 -7.8,8.9c-3.067,3.4 -6.433,6.633 -10.1,9.7c-3.667,3.067 -7.567,5.667 -11.7,7.8c-4.133,2.133 -8.4,3.2 -12.8,3.2c-4.267,0 -7.333,-0.867 -9.2,-2.6c-1.867,-1.733 -2.8,-4.067 -2.8,-7c0,-2.667 0.7,-5.5 2.1,-8.5c1.4,-3 3.633,-6.767 6.7,-11.3c3.067,-4.533 6.967,-10.067 11.7,-16.6c4.733,-6.533 10.433,-14.667 17.1,-24.4l13.4,-0Z" style="fill-rule:nonzero;"/></g></svg>